Coordinates
version=1
nRows=17
nColumns=34
inDegrees=yes

Units are S.I. units (second, meters, Newtons, ...)
If the header above contains a line with 'inDegrees', this indicates whether rotational values are in degrees (yes) or radians (no).

endheader
time	pelvis_tilt	pelvis_list	pelvis_rotation	pelvis_tx	pelvis_ty	pelvis_tz	hip_flexion_r	hip_adduction_r	hip_rotation_r	knee_angle_r	ankle_angle_r	subtalar_angle_r	mtp_angle_r	hip_flexion_l	hip_adduction_l	hip_rotation_l	knee_angle_l	ankle_angle_l	subtalar_angle_l	mtp_angle_l	lumbar_extension	lumbar_bending	lumbar_rotation	arm_flex_r	arm_add_r	arm_rot_r	elbow_flex_r	pro_sup_r	arm_flex_l	arm_add_l	arm_rot_l	elbow_flex_l	pro_sup_l
     12.55000000	      3.66028469	      4.00796537	     -4.98029516	      0.80503909	      0.99771617	     -0.37988680	      5.11991319	      2.60048727	    -26.40031417	      6.89677442	     -7.48615329	    -27.13810099	      0.00000000	     24.34869004	     -1.61398675	     -7.38252786	     54.17539425	     16.28951832	    -26.16922797	      0.00000000	    -11.77710023	      1.38504179	     -2.85183589	     37.81072599	      9.76904181	     73.22461038	    123.79253917	     87.22173445	     25.79573811	     10.32324011	     66.79005733	    121.76604330	     85.31095431
     12.56666670	      4.08093471	      3.28395343	     -4.97070444	      0.80886002	      0.99280817	     -0.38045008	      4.78760248	      3.16665557	    -26.60790405	      8.00022155	     -5.81527122	    -26.47393843	      0.00000000	     22.70705294	     -2.52063244	     -7.94729306	     52.45631690	     19.41553798	    -23.99529037	      0.00000000	    -12.15201180	      2.19126832	     -2.83554323	     38.02327586	      9.75161759	     73.20513887	    123.78852469	     87.01666641	     25.78969100	     10.53426212	     66.59419473	    121.50826190	     85.54326596
     12.58333330	      4.36548260	      2.74588185	     -4.99038786	      0.80882944	      0.99471901	     -0.38118271	      4.62185557	      3.56901624	    -26.66875595	      8.85768297	     -3.80476309	    -25.67743366	      0.00000000	     21.43811268	     -3.34914870	     -8.87104490	     50.80671371	     21.71321291	    -22.44581337	      0.00000000	    -12.54191370	      2.73159631	     -2.83477616	     38.03409957	      9.72197715	     73.25736698	    124.33556103	     86.77882319	     25.69808741	     10.75858771	     66.77790899	    121.37664314	     85.80127124
     12.60000000	      4.38731581	      2.02758706	     -4.92317374	      0.81362119	      0.99214862	     -0.38122447	      4.39140346	      4.24080333	    -26.61532228	      9.43439567	     -3.34776165	    -25.68365055	      0.00000000	     20.38010388	     -4.18047199	     -9.31984745	     49.39491918	     21.48231512	    -21.69507326	      0.00000000	    -12.22589685	      3.59611616	     -2.99568021	     37.79525125	      9.40945470	     73.28589900	    124.49578019	     86.73773288	     25.26777903	     11.11375348	     66.79300848	    121.40637496	     85.83682901
     12.61666670	      4.66376584	      1.44604939	     -5.14579821	      0.81254904	      0.99681832	     -0.38298646	      3.97188916	      4.79915009	    -25.53841935	      9.88830693	     -1.46016928	    -24.62154704	      0.00000000	     18.92342687	     -4.97982586	    -10.29095473	     47.52019916	     22.03706746	    -19.78971443	      0.00000000	    -12.27942245	      4.22209706	     -2.74506978	     37.51526602	      9.25314634	     73.61920864	    124.78260727	     86.62325264	     24.75634905	     11.59057161	     66.54369926	    121.03363991	     85.89128592
     12.63333330	      5.47804287	      1.06914828	     -5.02430401	      0.81355385	      0.99804110	     -0.38343444	      2.93732771	      4.99827754	    -25.87579646	     10.01127961	      0.88301424	    -22.15308677	      0.00000000	     17.21044219	     -5.59118727	    -11.14833639	     45.85460330	     23.31002818	    -17.53087024	      0.00000000	    -12.94912097	      4.62702766	     -2.61920218	     37.15731034	      8.78825481	     73.43455777	    124.95855367	     86.27256347	     24.84875147	     11.79108152	     66.71843318	    120.69891022	     85.98929262
     12.65000000	      5.18667915	      0.90345888	     -4.89948672	      0.81098360	      0.99684396	     -0.38315581	      3.01056564	      5.29931629	    -25.41299350	      9.55670739	      1.33125119	    -21.77238933	      0.00000000	     17.26909116	     -5.93301353	    -11.38160356	     44.38210058	     22.91986643	    -17.06708529	      0.00000000	    -12.70240288	      4.88347618	     -2.85236889	     36.94106480	      8.60012724	     73.82022119	    125.10759721	     86.22472211	     24.68851310	     11.97430390	     67.01433279	    120.64784603	     86.01239446
     12.66666670	      5.09603804	      0.91886561	     -4.87751458	      0.81283962	      0.99852544	     -0.38448208	      2.85712872	      5.27795134	    -24.85788732	      8.91752115	      1.55640652	    -20.99966704	      0.00000000	     17.13958683	     -6.14290715	    -11.75751705	     42.80328190	     22.19046600	    -16.42495099	      0.00000000	    -12.43433712	      4.99257592	     -2.86752793	     36.60763543	      8.38069723	     74.12717572	    125.01273361	     86.16025048	     24.16029141	     11.99883936	     67.33220260	    120.22320551	     86.01985501
     12.68333330	      5.01545395	      0.94261624	     -5.03911321	      0.81200253	      1.00031448	     -0.38535052	      2.94842029	      5.24774304	    -24.87900242	      8.50598219	      1.88173510	    -20.59999642	      0.00000000	     16.87728142	     -6.36620658	    -12.52493739	     40.80401425	     21.73630466	    -16.12633720	      0.00000000	    -12.48409525	      5.08146475	     -2.73470540	     36.17616174	      8.26855812	     74.58551486	    124.88557196	     86.07922569	     23.74139306	     12.04632027	     67.66089596	    119.71094064	     86.02293075
     12.70000000	      4.95740805	      0.77509016	     -5.12005112	      0.80742402	      0.99537385	     -0.38439182	      3.25762811	      5.43448954	    -25.04344596	      8.44517538	      2.16060629	    -20.87867566	      0.00000000	     17.02116006	     -6.65876581	    -12.46428528	     39.29288499	     21.17843580	    -15.33184568	      0.00000000	    -12.82330852	      5.44560212	     -2.49691161	     36.62908319	      8.19097934	     74.63741200	    124.74166506	     85.98337709	     24.20061723	     12.19212914	     67.67938117	    119.55419089	     86.02221563
     12.71666670	      4.72293000	      0.63069737	     -5.21533580	      0.80593550	      0.99809926	     -0.38701009	      3.65681380	      5.64362833	    -25.01427072	      7.94743695	      1.91036414	    -20.86460122	      0.00000000	     17.14719470	     -6.72210068	    -12.63026393	     37.04554073	     20.24745821	    -14.26232844	      0.00000000	    -12.96257766	      5.79827561	     -2.37369892	     36.97029711	      8.01513935	     74.82296295	    124.58061297	     85.89084549	     24.45138764	     12.25369712	     67.68995184	    119.34616209	     86.01708283
     12.73333330	      4.64346093	      0.52995415	     -5.16762217	      0.80540594	      0.99274294	     -0.38499150	      3.93477457	      5.74886979	    -24.68952691	      7.90219753	      1.54710028	    -21.22332182	      0.00000000	     17.25092460	     -6.91823724	    -12.97439732	     34.94601650	     19.43034068	    -13.34226212	      0.00000000	    -13.17003709	      5.92173209	     -2.32766327	     37.37058331	      8.07721987	     74.82515664	    124.37923999	     85.75580416	     24.95372803	     12.24532841	     67.65397185	    119.34168604	     86.01189462
     12.75000000	      4.59840896	      0.23478038	     -5.03997144	      0.80657647	      0.99679493	     -0.38557433	      4.10282948	      6.19155438	    -24.44086438	      7.69103197	      1.23365490	    -21.92103655	      0.00000000	     17.03443624	     -7.18518659	    -13.03025479	     32.56891792	     17.72725336	    -11.87614967	      0.00000000	    -13.44136017	      6.25328390	     -2.25364419	     37.45209402	      8.08361979	     74.85518961	    124.13356781	     85.62927928	     25.00285405	     12.17039699	     67.71393691	    119.36765513	     86.01000897
     12.76666670	      4.63721995	      0.23895295	     -4.85299185	      0.80597117	      0.99294892	     -0.38667274	      4.02708779	      6.15595724	    -24.18298439	      7.62817171	      0.53452811	    -22.44512243	      0.00000000	     16.80829268	     -7.20496465	    -13.46107303	     30.29722741	     15.26922470	    -10.65935758	      0.00000000	    -13.64581247	      6.32878672	     -2.25757411	     37.53963870	      8.10130945	     74.66564793	    123.86387277	     85.50124152	     25.36771409	     11.90051304	     67.63546283	    119.44965784	     86.00073058
     12.78333330	      4.89327321	      0.37776616	     -4.58469065	      0.81084311	      0.99617531	     -0.38784232	      3.49258940	      5.98175623	    -24.37464761	      7.10351861	     -0.65656567	    -23.06747336	      0.00000000	     16.07549507	     -6.93191892	    -13.79757026	     27.49948174	     11.86144243	     -9.03099935	      0.00000000	    -13.80043654	      6.21227363	     -2.26739630	     36.93733395	      8.11333119	     74.60931165	    123.66642659	     85.37467596	     25.22729194	     11.48663012	     67.73725624	    119.51561494	     85.99432585
     12.80000000	      5.89381504	      0.66530112	     -4.62500161	      0.80877856	      0.99555335	     -0.38688762	      2.40940378	      5.69972568	    -23.05855205	      6.79927050	     -4.64079826	    -26.30213074	      0.00000000	     14.60675916	     -6.50928507	    -14.03094026	     24.35131658	      7.34742186	     -9.39481490	      0.00000000	    -15.24693875	      5.64381180	     -2.06400374	     36.70852406	      8.31810189	     74.24029294	    123.67171993	     84.70482647	     25.80477515	     11.32105288	     68.27253592	    119.62966309	     85.89489808
     12.81666670	      6.00167473	      0.56694069	     -4.65662979	      0.80382372	      0.98944249	     -0.38876534	      2.78953061	      5.72167503	    -22.56741545	      7.31291110	     -5.06193309	    -27.21188079	      0.00000000	     14.76367423	     -6.59196696	    -14.08778322	     22.29584305	      4.39525130	     -7.49802762	      0.00000000	    -15.81400575	      5.65088972	     -2.16764164	     36.55619645	      8.37164329	     74.22109657	    123.41946698	     84.58680532	     26.06722209	     10.97424026	     68.51544897	    119.60533502	     85.87076678
